<svg width="20" height="20" viewBox="0 0 20 20" fill="none" xmlns="http://www.w3.org/2000/svg">
<path  d="M17.9397 4.54502C17.7053 4.31068 17.3874 4.17904 17.0559 4.17904C16.7245 4.17904 16.4066 4.31068 16.1722 4.54502L9.98468 10.7325L3.79718 4.54502C3.56143 4.31733 3.24567 4.19133 2.91793 4.19418C2.59018 4.19703 2.27667 4.32849 2.04491 4.56025C1.81315 4.79201 1.68169 5.10553 1.67884 5.43327C1.67599 5.76102 1.80198 6.07677 2.02968 6.31252L9.10093 13.3838C9.33534 13.6181 9.65323 13.7498 9.98468 13.7498C10.3161 13.7498 10.634 13.6181 10.8684 13.3838L17.9397 6.31252C18.174 6.07811 18.3057 5.76023 18.3057 5.42877C18.3057 5.09732 18.174 4.77943 17.9397 4.54502V4.54502Z" fill="white"/>
</svg>
