<svg width="39" height="49" viewBox="0 0 39 49" fill="none" xmlns="http://www.w3.org/2000/svg">
<rect y="0.231934" width="50.7026" height="61.1365" transform="rotate(-38.0235 0 0.231934)" fill="white" fill-opacity="0.5"/>
<path fill-rule="evenodd" clip-rule="evenodd" d="M23.6656 6.66625C24.3987 6.6325 24.6325 6.625 26.5 6.625C28.3675 6.625 28.6012 6.63312 29.3337 6.66625C30.0662 6.69937 30.5662 6.81625 31.0037 6.98562C31.4619 7.15875 31.8775 7.42937 32.2212 7.77937C32.5712 8.1225 32.8412 8.5375 33.0137 8.99625C33.1837 9.43375 33.3 9.93375 33.3337 10.665C33.3675 11.3994 33.375 11.6331 33.375 13.5C33.375 15.3675 33.3669 15.6012 33.3337 16.3344C33.3006 17.0656 33.1837 17.5656 33.0137 18.0031C32.8412 18.4619 32.5708 18.8776 32.2212 19.2212C31.8775 19.5712 31.4619 19.8412 31.0037 20.0137C30.5662 20.1837 30.0662 20.3 29.335 20.3337C28.6012 20.3675 28.3675 20.375 26.5 20.375C24.6325 20.375 24.3987 20.3669 23.6656 20.3337C22.9344 20.3006 22.4344 20.1837 21.9969 20.0137C21.5381 19.8412 21.1224 19.5708 20.7787 19.2212C20.429 18.8779 20.1583 18.4624 19.9856 18.0037C19.8162 17.5662 19.7 17.0662 19.6662 16.335C19.6325 15.6006 19.625 15.3669 19.625 13.5C19.625 11.6325 19.6331 11.3987 19.6662 10.6662C19.6994 9.93375 19.8162 9.43375 19.9856 8.99625C20.1586 8.53755 20.4294 8.12207 20.7794 7.77875C21.1225 7.42906 21.5378 7.1584 21.9962 6.98562C22.4337 6.81625 22.9337 6.7 23.665 6.66625H23.6656ZM29.2781 7.90375C28.5531 7.87062 28.3356 7.86375 26.5 7.86375C24.6644 7.86375 24.4469 7.87062 23.7219 7.90375C23.0512 7.93437 22.6875 8.04625 22.445 8.14062C22.1244 8.26562 21.895 8.41375 21.6544 8.65437C21.4263 8.87628 21.2507 9.14643 21.1406 9.445C21.0462 9.6875 20.9344 10.0512 20.9037 10.7219C20.8706 11.4469 20.8637 11.6644 20.8637 13.5C20.8637 15.3356 20.8706 15.5531 20.9037 16.2781C20.9344 16.9487 21.0462 17.3125 21.1406 17.555C21.2506 17.8531 21.4262 18.1237 21.6544 18.3456C21.8762 18.5737 22.1469 18.7494 22.445 18.8594C22.6875 18.9537 23.0512 19.0656 23.7219 19.0962C24.4469 19.1294 24.6637 19.1362 26.5 19.1362C28.3362 19.1362 28.5531 19.1294 29.2781 19.0962C29.9487 19.0656 30.3125 18.9537 30.555 18.8594C30.8756 18.7344 31.105 18.5862 31.3456 18.3456C31.5737 18.1237 31.7494 17.8531 31.8594 17.555C31.9537 17.3125 32.0656 16.9487 32.0962 16.2781C32.1294 15.5531 32.1362 15.3356 32.1362 13.5C32.1362 11.6644 32.1294 11.4469 32.0962 10.7219C32.0656 10.0512 31.9537 9.6875 31.8594 9.445C31.7344 9.12437 31.5862 8.895 31.3456 8.65437C31.1237 8.42629 30.8536 8.25076 30.555 8.14062C30.3125 8.04625 29.9487 7.93437 29.2781 7.90375V7.90375ZM25.6219 15.6194C26.1123 15.8235 26.6584 15.8511 27.1668 15.6973C27.6753 15.5436 28.1146 15.2181 28.4098 14.7764C28.7049 14.3347 28.8375 13.8043 28.785 13.2757C28.7325 12.7471 28.4981 12.2531 28.1219 11.8781C27.882 11.6384 27.592 11.4549 27.2727 11.3407C26.9534 11.2266 26.6128 11.1846 26.2753 11.2179C25.9379 11.2512 25.612 11.3589 25.3211 11.5332C25.0303 11.7076 24.7817 11.9442 24.5933 12.2262C24.4049 12.5081 24.2814 12.8283 24.2316 13.1637C24.1818 13.4991 24.207 13.8414 24.3053 14.1659C24.4037 14.4905 24.5728 14.7891 24.8004 15.0405C25.0281 15.2918 25.3086 15.4895 25.6219 15.6194ZM24.0012 11.0012C24.3294 10.6731 24.7189 10.4128 25.1477 10.2352C25.5764 10.0576 26.0359 9.96623 26.5 9.96623C26.9641 9.96623 27.4236 10.0576 27.8523 10.2352C28.281 10.4128 28.6706 10.6731 28.9987 11.0012C29.3269 11.3294 29.5872 11.7189 29.7648 12.1477C29.9424 12.5764 30.0338 13.0359 30.0338 13.5C30.0338 13.9641 29.9424 14.4236 29.7648 14.8523C29.5872 15.281 29.3269 15.6706 28.9987 15.9987C28.336 16.6615 27.4372 17.0338 26.5 17.0338C25.5628 17.0338 24.664 16.6615 24.0012 15.9987C23.3385 15.336 22.9662 14.4372 22.9662 13.5C22.9662 12.5628 23.3385 11.664 24.0012 11.0012V11.0012ZM30.8175 10.4925C30.8988 10.4158 30.9639 10.3236 31.0089 10.2212C31.054 10.1189 31.078 10.0086 31.0796 9.89683C31.0813 9.78506 31.0605 9.67409 31.0184 9.57051C30.9764 9.46692 30.914 9.37282 30.835 9.29377C30.7559 9.21473 30.6618 9.15235 30.5582 9.11032C30.4547 9.0683 30.3437 9.04748 30.2319 9.04911C30.1201 9.05074 30.0098 9.07478 29.9075 9.11981C29.8052 9.16484 29.713 9.22993 29.6362 9.31125C29.4871 9.46939 29.4054 9.67945 29.4086 9.89683C29.4117 10.1142 29.4995 10.3218 29.6532 10.4755C29.8069 10.6293 30.0145 10.717 30.2319 10.7202C30.4493 10.7234 30.6594 10.6417 30.8175 10.4925V10.4925Z" fill="white"/>
</svg>
